<svg width="1280" height="860" viewBox="0 0 1280 860" fill="none" xmlns="http://www.w3.org/2000/svg">
  <rect width="1280" height="860" rx="28" fill="#EAF3FF"/>
  <rect x="70" y="78" width="1140" height="704" rx="24" fill="white"/>
  <rect x="116" y="128" width="430" height="28" rx="14" fill="#D5E7FF"/>
  <rect x="116" y="176" width="340" height="20" rx="10" fill="#E8F1FF"/>
  <rect x="116" y="242" width="484" height="460" rx="20" fill="#F5F9FF"/>
  <rect x="142" y="272" width="320" height="22" rx="11" fill="#C8E0FF"/>
  <rect x="142" y="308" width="430" height="14" rx="7" fill="#DCEBFF"/>
  <rect x="142" y="336" width="394" height="14" rx="7" fill="#DCEBFF"/>
  <rect x="142" y="404" width="430" height="272" rx="16" fill="white"/>
  <circle cx="740" cy="290" r="116" fill="#D6EDFF"/>
  <circle cx="980" cy="330" r="88" fill="#C6E5FF"/>
  <rect x="666" y="436" width="462" height="244" rx="20" fill="#F3F8FF"/>
  <rect x="706" y="482" width="286" height="24" rx="12" fill="#BFD8F8"/>
  <rect x="706" y="524" width="380" height="16" rx="8" fill="#D6E6FA"/>
  <rect x="706" y="552" width="334" height="16" rx="8" fill="#D6E6FA"/>
  <rect x="706" y="610" width="220" height="38" rx="19" fill="#0E4F84"/>
  <circle cx="850" cy="292" r="58" fill="#0E4F84"/>
  <rect x="820" y="354" width="64" height="120" rx="32" fill="#0E4F84"/>
  <circle cx="905" cy="268" r="42" fill="#1E7DB6"/>
  <rect x="886" y="312" width="44" height="90" rx="22" fill="#1E7DB6"/>
  <circle cx="780" cy="258" r="36" fill="#2F92C8"/>
  <rect x="762" y="298" width="36" height="76" rx="18" fill="#2F92C8"/>
</svg>
